<?xml version="1.0" encoding="UTF-8"?>
<svg width="508px" height="508px" viewBox="0 0 508 508" version="1.1" xmlns="http://www.w3.org/2000/svg" xmlns:xlink="http://www.w3.org/1999/xlink">
    <title>back</title>
    <g id="rhum" stroke="none" stroke-width="1" fill="none" fill-rule="evenodd">
        <circle id="Oval" fill="#E67C12" cx="254" cy="254" r="233"></circle>
        <g id="noun_Snifter_43095" transform="translate(81.000000, 71.000000)" fill="#FFFFFF" fill-rule="nonzero">
            <path d="M290.81603,35.6098301 C290.587544,35.2913347 289.949358,34.4184215 289.862691,34.3397807 C276.539587,11.5300074 221.391704,1 169.742022,1 C117.848097,1 62.5505161,11.6086482 49.4558977,34.5717711 C49.3771094,34.5717711 48.6640751,35.6098301 48.3489219,36.1603159 C-18.6959969,152.97734 -3.78530785,227.336178 20.4972516,269.153441 C48.8177124,317.851776 105.395603,347 171.881125,347 C238.606951,347 297.639098,314.843764 325.798043,263.050912 C358.967924,202.155384 346.511491,121.363725 290.81603,35.6098301 Z M169.742022,23.8058412 C234.005713,23.8058412 267.329232,39.5654639 269.23591,45.1057106 C267.329232,51.0470254 234.005713,66.8066481 169.742022,66.8066481 C105.474392,66.8066481 72.1508726,51.0470254 70.2441953,45.5067788 C72.1508726,39.569396 105.470452,23.8058412 169.742022,23.8058412 Z M304.863987,251.734496 C280.896581,295.840207 229.881145,323.242605 171.881125,323.242605 C114.04656,323.242605 65.0914394,298.533655 41.1279726,257.19217 C13.433879,209.520098 19.8630057,142.21141 59.0562542,66.2561623 C80.5615255,82.1730667 126.345417,89.6203534 169.742022,89.6203534 C213.701964,89.6203534 260.19889,82.015785 281.298401,65.6191715 C323.111361,137.135144 331.522014,202.701938 304.863987,251.734496 Z" id="Shape"></path>
            <path d="M294.912788,226.714892 C294.837468,196.685168 231.679956,183 172.998018,183 C114.395363,183 51.1625319,196.681286 51.083248,226.714892 L51,226.714892 C51,273.162936 105.769281,311 172.998018,311 C240.230719,311 295,273.162936 295,226.714892 L294.912788,226.714892 Z M172.998018,247.982226 C109.444087,247.982226 76.3906517,232.425781 74.5552306,227.025478 C76.3906517,221.085532 109.448051,205.529087 172.998018,205.529087 C236.555913,205.529087 269.60142,221.085532 271.444769,226.5596 C269.605384,232.425781 236.559877,247.982226 172.998018,247.982226 Z" id="Shape"></path>
        </g>
        <g id="noun_Snifter_9246" transform="translate(170.000000, 405.000000)" fill="#FFFFFF" fill-rule="nonzero">
            <path d="M65.6071429,-2.84217094e-14 C65.6071429,36 47.7142857,72 17.8928571,72 L11.9285714,72 C5.344,72 0,80.064 0,90 C0,99.936 5.344,108 11.9285714,108 L155.071429,108 C161.656,108 167,99.936 167,90 C167,80.064 161.656,72 155.071429,72 L149.107143,72 C119.285714,72 101.392857,36 101.392857,-2.84217094e-14 L65.6071429,-2.84217094e-14 Z" id="Shape"></path>
        </g>
    </g>
</svg>