<?xml version="1.0" encoding="UTF-8"?>
<svg width="508px" height="508px" viewBox="0 0 508 508" version="1.1" xmlns="http://www.w3.org/2000/svg" xmlns:xlink="http://www.w3.org/1999/xlink">
    <title>back</title>
    <g id="rhum" stroke="none" stroke-width="1" fill="none" fill-rule="evenodd">
        <g id="Group" transform="translate(18.000000, 21.000000)">
            <ellipse id="Oval" fill="#E67C12" cx="236" cy="236.5" rx="236" ry="236.5"></ellipse>
            <g id="Group-3" transform="translate(83.000000, 46.000000)" fill="#FFFFFF">
                <g id="noun_Snifter_43095" fill-rule="nonzero">
                    <path d="M258.759232,30.8703236 C258.556424,30.5862409 257.989959,29.8076438 257.913031,29.7374999 C246.087204,9.39226615 197.136953,0 151.291767,0 C105.229786,0 56.1466601,9.46241003 44.5236415,29.9444243 C44.4537076,29.9444243 43.8208055,30.8703236 43.5410698,31.3613308 C-15.969205,135.556564 -2.73420936,201.881114 18.8194268,239.180125 C43.9571767,282.616725 94.1767293,308.615556 153.190473,308.615556 C212.417516,308.615556 264.81551,279.933722 289.809895,233.736959 C319.252078,179.421042 308.195525,107.358723 258.759232,30.8703236 Z M151.291767,20.3417265 C208.333374,20.3417265 237.911928,34.398561 239.60433,39.3401977 C237.911928,44.6395682 208.333374,58.6964026 151.291767,58.6964026 C94.2466632,58.6964026 64.668109,44.6395682 62.975708,39.6979315 C64.668109,34.4020682 94.2431665,20.3417265 151.291767,20.3417265 Z M271.228451,223.643254 C249.954551,262.983452 204.672333,287.425089 153.190473,287.425089 C101.855474,287.425089 58.4020292,265.38588 37.1316255,228.51124 C12.5498503,185.990017 18.2564587,125.953866 53.0450904,58.2053954 C72.1335557,72.4025177 112.77216,79.0451435 151.291767,79.0451435 C190.311401,79.0451435 231.582908,72.2622299 250.311214,57.63723 C287.425148,121.426079 294.890595,179.908542 271.228451,223.643254 Z" id="Shape"></path>
                    <path d="M263.341442,202.394597 C263.274614,175.544989 207.23747,163.309065 155.171324,163.309065 C103.175523,163.309065 47.0715516,175.541517 47.0012062,202.394597 L46.9273435,202.394597 C46.9273435,243.923842 95.5219441,277.754001 155.171324,277.754001 C214.824221,277.754001 263.418822,243.923842 263.418822,202.394597 L263.341442,202.394597 Z M155.171324,221.409742 C98.7824533,221.409742 69.4554571,207.500708 67.8269611,202.672291 C69.4554571,197.36138 98.7859706,183.452346 155.171324,183.452346 C211.563712,183.452346 240.883674,197.36138 242.519204,202.255749 C240.887191,207.500708 211.567229,221.409742 155.171324,221.409742 Z" id="Shape"></path>
                </g>
                <g id="noun_Snifter_9246" transform="translate(71.000000, 294.000000)" fill-rule="nonzero">
                    <path d="M10.0571555,0 C102.191987,36.2756911 27.1019942,62.7960281 0,62.7960281 C32.1650906,70.2478749 59.5672024,73.9737984 82.2063356,73.9737984 C104.845469,73.9737984 131.842858,70.2478749 163.198502,62.7960281 C136.096508,62.7960281 60.0851666,36.2756911 152.219998,0 C119.376466,6.57721269 96.1258391,9.86581903 82.4681179,9.86581903 C68.4242336,9.86581903 44.2872462,6.57721269 10.0571555,0 Z" id="Shape"></path>
                </g>
                <ellipse id="Oval" cx="153" cy="363" rx="85" ry="24"></ellipse>
            </g>
        </g>
    </g>
</svg>