<?xml version="1.0" encoding="UTF-8"?>
<svg width="508px" height="508px" viewBox="0 0 508 508" version="1.1" xmlns="http://www.w3.org/2000/svg" xmlns:xlink="http://www.w3.org/1999/xlink">
    <title>back</title>
    <g id="rhum" stroke="none" stroke-width="1" fill="none" fill-rule="evenodd">
        <g id="Group" transform="translate(80.000000, 83.000000)">
            <ellipse id="Oval" stroke="#FFFFFF" stroke-width="7" fill="#E67C12" cx="174" cy="174.5" rx="177.5" ry="178"></ellipse>
            <g id="Group-2" transform="translate(50.000000, 36.000000)" fill="#FFFFFF" fill-rule="nonzero">
                <g id="noun_Snifter_43095" transform="translate(0.500000, 0.000000)">
                    <path d="M206.776486,24.0068186 C206.61442,23.7858969 206.161754,23.180408 206.100281,23.1258594 C196.650172,7.30405137 157.53365,0 120.898411,0 C84.0899291,0 44.8672265,7.35859992 35.5791833,23.2867777 C35.5232985,23.2867777 35.0175417,24.0068186 34.7940027,24.3886584 C-12.7611141,105.417808 -2.18492766,156.996193 15.0387482,186.002386 C35.1265169,219.781578 75.2573465,240 122.415682,240 C169.744465,240 211.616104,217.695096 231.589309,181.769419 C255.116784,139.529746 246.281407,83.4892892 206.776486,24.0068186 Z M120.898411,15.8190806 C166.480797,15.8190806 190.117246,26.7506108 191.469657,30.5935565 C190.117246,34.7146997 166.480797,45.6462299 120.898411,45.6462299 C75.3132312,45.6462299 51.6767817,34.7146997 50.3243711,30.8717541 C51.6767817,26.7533383 75.310437,15.8190806 120.898411,15.8190806 Z M216.740735,173.919882 C199.740598,204.513438 163.555231,223.520882 122.415682,223.520882 C81.3934906,223.520882 46.6695093,206.381726 29.6721666,177.705551 C10.0286816,144.638218 14.5888761,97.9501108 42.3887385,45.26439 C57.6424774,56.3050173 90.117098,61.4707654 120.898411,61.4707654 C152.0793,61.4707654 185.059677,56.1959202 200.02561,44.8225467 C229.68364,94.4290016 235.649335,139.908858 216.740735,173.919882 Z" id="Shape"></path>
                    <path d="M210.438165,157.395511 C210.384762,136.515469 165.605051,127 123.998595,127 C82.4483518,127 37.6152378,136.512769 37.5590242,157.395511 L37.5,157.395511 C37.5,189.691416 76.3323179,216 123.998595,216 C171.667682,216 210.5,189.691416 210.5,157.395511 L210.438165,157.395511 Z M123.998595,172.182954 C78.9378158,172.182954 55.5023883,161.366363 54.2010447,157.611465 C55.5023883,153.481347 78.9406265,142.664756 123.998595,142.664756 C169.062184,142.664756 192.49199,153.481347 193.798955,157.287534 C192.494801,161.366363 169.064995,172.182954 123.998595,172.182954 Z" id="Shape"></path>
                </g>
                <g id="noun_Snifter_9246" transform="translate(72.000000, 230.000000)">
                    <path d="M37.50078,0 C37.50078,28.5460074 21.6653666,47.2040074 0,47.2040074 C15.8924526,53.0680025 32.887554,56 50.9853042,56 C69.0830544,56 85.7546197,53.0680025 101,47.2040074 C79.3346334,47.2040074 63.49922,28.5460074 63.49922,0 L37.50078,0 Z" id="Shape"></path>
                </g>
            </g>
        </g>
    </g>
</svg>