<?xml version="1.0" encoding="UTF-8"?>
<svg width="508px" height="508px" viewBox="0 0 508 508" version="1.1" xmlns="http://www.w3.org/2000/svg" xmlns:xlink="http://www.w3.org/1999/xlink">
    <title>back</title>
    <g id="rhum" stroke="none" stroke-width="1" fill="none" fill-rule="evenodd">
        <g id="Group" transform="translate(18.000000, 21.000000)">
            <ellipse id="Oval" fill="#E67C12" cx="236" cy="236.5" rx="236" ry="236.5"></ellipse>
            <g id="Group-2" transform="translate(70.000000, 36.000000)" fill="#FFFFFF" fill-rule="nonzero">
                <g id="noun_Snifter_43095">
                    <path d="M280.745311,33.5677305 C280.52527,33.258825 279.910674,32.4121952 279.827211,32.3359222 C266.996575,10.2129496 213.887151,0 164.146623,0 C114.170879,0 60.9172913,10.2892226 48.306696,32.5609274 C48.23082,32.5609274 47.5441419,33.5677305 47.2406378,34.1016413 C-17.3260655,147.401312 -2.9665278,219.521212 20.4184631,260.079359 C47.6921002,307.311391 102.178674,335.581964 166.206657,335.581964 C230.466063,335.581964 287.316174,304.39395 314.434266,254.160577 C346.378072,195.098609 334.382072,116.739582 280.745311,33.5677305 Z M164.146623,22.1191589 C226.034903,22.1191589 258.126668,37.4042605 259.962867,42.7776907 C258.126668,48.5401129 226.034903,63.8252145 164.146623,63.8252145 C102.25455,63.8252145 70.162785,48.5401129 68.3265851,43.1666828 C70.162785,37.4080742 102.250756,22.1191589 164.146623,22.1191589 Z M294.274006,243.184898 C271.192519,285.962589 222.062793,312.539902 166.206657,312.539902 C110.509861,312.539902 63.3642931,288.574938 40.2866002,248.478242 C13.6161774,202.241572 19.8076611,136.959544 57.5521896,63.2913038 C78.2625506,78.7289513 122.354109,85.9520007 164.146623,85.9520007 C206.481651,85.9520007 251.259887,78.5764053 271.579487,62.6734928 C311.846893,132.036124 319.946659,195.628706 294.274006,243.184898 Z" id="Shape"></path>
                    <path d="M285.716858,220.079561 C285.644352,190.883871 224.845882,177.578789 168.355816,177.578789 C111.942071,177.578789 51.0710952,190.880097 50.9947727,220.079561 L50.9146341,220.079561 C50.9146341,265.237575 103.638188,302.023768 168.355816,302.023768 C233.077259,302.023768 285.800813,265.237575 285.800813,220.079561 L285.716858,220.079561 Z M168.355816,240.756225 C107.175734,240.756225 75.3569011,225.631838 73.5900362,220.381521 C75.3569011,214.606549 107.17955,199.482162 168.355816,199.482162 C229.539714,199.482162 261.350914,214.606549 263.125411,219.928582 C261.35473,225.631838 229.54353,240.756225 168.355816,240.756225 Z" id="Shape"></path>
                </g>
                <g id="noun_Snifter_9246" transform="translate(77.000000, 320.000000)">
                    <path d="M10.9156932,0 C110.915693,39.7071754 29.4155791,68.7361929 0,68.7361929 C34.910891,76.8929442 64.6522075,80.9713198 89.2239496,80.9713198 C113.795692,80.9713198 143.097736,76.8929442 177.130081,68.7361929 C147.714502,68.7361929 65.2143881,39.7071754 165.214388,0 C129.56714,7.19938146 104.331703,10.7990722 89.5080792,10.7990722 C74.2653267,10.7990722 48.0678648,7.19938146 10.9156932,0 Z" id="Shape"></path>
                </g>
            </g>
        </g>
    </g>
</svg>