<?xml version="1.0" encoding="UTF-8"?>
<svg width="508px" height="508px" viewBox="0 0 508 508" version="1.1" xmlns="http://www.w3.org/2000/svg" xmlns:xlink="http://www.w3.org/1999/xlink">
    <title>back</title>
    <g id="rhum" stroke="none" stroke-width="1" fill="none" fill-rule="evenodd">
        <g id="Group" transform="translate(80.000000, 83.000000)">
            <ellipse id="Oval" stroke="#FFFFFF" stroke-width="7" fill="#E67C12" cx="174" cy="174.5" rx="177.5" ry="178"></ellipse>
            <g id="noun_Snifter_43095" transform="translate(45.000000, 38.000000)" fill="#FFFFFF" fill-rule="nonzero">
                <path d="M217.266627,26.6050455 C217.095926,26.3670892 216.619143,25.7149126 216.554394,25.656158 C206.600796,8.61437333 165.400197,0.747126437 126.81308,0.747126437 C88.0434909,0.747126437 46.7310542,8.67312798 36.9481562,25.8294842 C36.889294,25.8294842 36.356591,26.6050455 36.1211422,27.016328 C-13.9676489,114.293415 -2.82797709,169.848869 15.3133537,201.091651 C36.4713723,237.475465 78.7403198,259.252874 128.411189,259.252874 C178.261588,259.252874 222.364094,235.228099 243.401445,196.532291 C268.182432,151.035632 258.876318,90.6740476 217.266627,26.6050455 Z M126.81308,17.7859733 C174.824036,17.7859733 199.719804,29.5604041 201.14427,33.6996688 C199.719804,38.1385822 174.824036,49.913013 126.81308,49.913013 C78.799182,49.913013 53.9034135,38.1385822 52.4789482,33.9993175 C53.9034135,29.5633418 78.7962389,17.7859733 126.81308,17.7859733 Z M227.761758,188.077497 C209.855876,221.03004 171.7426,241.503095 128.411189,241.503095 C85.2033896,241.503095 48.6293602,223.042386 30.7264214,192.15507 C10.0363572,156.538004 14.839513,106.249904 44.1205155,49.5017304 C60.1869536,61.3936705 94.3917794,66.9577353 126.81308,66.9577353 C159.655246,66.9577353 194.392775,61.2761612 210.156073,49.0258178 C241.394244,102.457292 247.677784,151.443976 227.761758,188.077497 Z" id="Shape"></path>
                <path d="M220.327286,169.38469 C220.271015,146.948689 173.086479,136.724138 129.245612,136.724138 C85.4639777,136.724138 38.2231706,146.945788 38.1639382,169.38469 L38.1017442,169.38469 C38.1017442,204.087251 79.0194917,232.356322 129.245612,232.356322 C179.474694,232.356322 220.392442,204.087251 220.392442,169.38469 L220.327286,169.38469 Z M129.245612,185.274077 C81.7649138,185.274077 57.0709229,173.651446 55.6996926,169.616736 C57.0709229,165.178846 81.7678755,153.556214 129.245612,153.556214 C176.729272,153.556214 201.41734,165.178846 202.794493,169.268666 C201.420302,173.651446 176.732234,185.274077 129.245612,185.274077 Z" id="Shape"></path>
            </g>
        </g>
        <g id="noun_Snifter_9246" transform="translate(203.000000, 370.000000)" fill="#FFFFFF" fill-rule="nonzero">
            <path d="M37.1071429,0 C37.1071429,33.9320465 22.3214286,56.1104238 0,56.1104238 C15.354221,60.7034746 32.354221,63 51,63 C69.645779,63 86.645779,60.7034746 102,56.1104238 C79.6785714,56.1104238 63.8928571,33.9320465 63.8928571,0 L37.1071429,0 Z" id="Shape"></path>
        </g>
    </g>
</svg>