<?xml version="1.0" encoding="UTF-8"?>
<svg width="508px" height="508px" viewBox="0 0 508 508" version="1.1" xmlns="http://www.w3.org/2000/svg" xmlns:xlink="http://www.w3.org/1999/xlink">
    <title>back</title>
    <defs>
        <circle id="path-1" cx="254" cy="254" r="183"></circle>
    </defs>
    <g id="rhum---polygon-circle-copy" stroke="none" stroke-width="1" fill="none" fill-rule="evenodd">
        <mask id="mask-2" fill="white">
            <use xlink:href="#path-1"></use>
        </mask>
        <g id="Mask"></g>
        <g id="polygons" mask="url(#mask-2)">
            <g transform="translate(65.000000, 18.000000)" id="Triangle">
                <polygon fill="#1788B3" transform="translate(141.472226, 281.727467) rotate(-270.000000) translate(-141.472226, -281.727467) " points="141.472226 234.727467 235.472226 328.727467 47.472226 328.727467"></polygon>
                <polygon fill="#147EA6" transform="translate(141.411718, 375.785743) rotate(-90.000000) translate(-141.411718, -375.785743) " points="141.411718 328.785743 235.411718 422.785743 198.931392 422.785743 47.4117182 422.785743"></polygon>
                <polygon fill="#CB0806" transform="translate(47.500000, 282.000000) rotate(-90.000000) translate(-47.500000, -282.000000) " points="47.5 235 141.5 329 -46.5 329"></polygon>
                <polygon fill="#FF0000" transform="translate(47.500000, 94.000000) rotate(-90.000000) translate(-47.500000, -94.000000) " points="47.5 47 141.5 141 -46.5 141"></polygon>
                <polygon fill="#E10709" transform="translate(47.500000, 188.000000) rotate(-270.000000) translate(-47.500000, -188.000000) " points="47.5 141 141.5 235 -46.5 235"></polygon>
                <polygon fill="#A7080A" transform="translate(47.682019, 375.951891) rotate(-270.000000) translate(-47.682019, -375.951891) " points="47.6820192 328.951891 141.682019 422.951891 -46.3179808 422.951891"></polygon>
                <polygon fill="#A7080A" transform="translate(94.595721, 422.729451) rotate(-360.000000) translate(-94.595721, -422.729451) " points="94.5957213 375.729451 188.595721 469.729451 0.595721262 469.729451"></polygon>
                <polygon fill="#109ED3" transform="translate(141.611740, 187.885067) rotate(-90.000000) translate(-141.611740, -187.885067) " points="141.61174 140.885067 235.61174 234.885067 47.6117402 234.885067"></polygon>
                <polygon fill="#10B0EC" transform="translate(141.500000, 94.000000) rotate(-270.000000) translate(-141.500000, -94.000000) " points="141.5 47 235.5 141 47.5 141"></polygon>
                <polygon fill="#10B0EC" transform="translate(188.500000, 47.000000) rotate(-180.000000) translate(-188.500000, -47.000000) " points="188.5 0 282.5 94 94.5 94"></polygon>
                <polygon fill="#D9BA06" transform="translate(235.500000, 282.000000) rotate(-90.000000) translate(-235.500000, -282.000000) " points="235.5 235 329.5 329 141.5 329"></polygon>
                <polygon fill="#CDB009" transform="translate(235.500000, 376.000000) rotate(-270.000000) translate(-235.500000, -376.000000) " points="235.5 329 329.5 423 141.5 423"></polygon>
                <polygon fill="#CDB009" transform="translate(282.489597, 422.964781) rotate(-360.000000) translate(-282.489597, -422.964781) " points="282.489597 375.964781 376.489597 469.964781 188.489597 469.964781"></polygon>
                <polygon fill="#F4D002" transform="translate(235.500000, 188.000000) rotate(-270.000000) translate(-235.500000, -188.000000) " points="235.5 141 329.5 235 141.5 235"></polygon>
                <polygon fill="#F8DA2C" transform="translate(235.500000, 94.000000) rotate(-90.000000) translate(-235.500000, -94.000000) " points="235.5 47 329.5 141 141.5 141"></polygon>
                <polygon fill="#279D34" transform="translate(329.500000, 188.000000) rotate(-90.000000) translate(-329.500000, -188.000000) " points="329.5 141 423.5 235 235.5 235"></polygon>
                <polygon fill="#32B240" transform="translate(329.500000, 94.000000) rotate(-270.000000) translate(-329.500000, -94.000000) " points="329.5 47 423.5 141 235.5 141"></polygon>
                <polygon fill="#2A8735" transform="translate(329.500000, 282.000000) rotate(-270.000000) translate(-329.500000, -282.000000) " points="329.5 235 423.5 329 235.5 329"></polygon>
                <polygon fill="#2A8735" transform="translate(329.466599, 375.961773) rotate(-90.000000) translate(-329.466599, -375.961773) " points="329.466599 328.961773 423.466599 422.961773 235.466599 422.961773"></polygon>
            </g>
        </g>
        <path d="M296.519417,217.363406 L275.698802,200.935563 C276.753825,197.962688 277.708063,193.042781 277.708063,184.972031 C277.708063,173.123031 275.224364,163.076031 273.103597,156.656406 C274.451324,155.467469 275.306385,153.740906 275.306385,151.816719 L275.306385,124.486563 C275.306385,120.909656 272.369691,118 268.760205,118 L237.240331,118 C233.630845,118 230.694687,120.910188 230.694687,124.486563 L230.694687,151.816719 C230.694687,153.741438 231.549749,155.467469 232.89694,156.656406 C230.776172,163.076031 228.292473,173.123031 228.292473,184.972031 C228.292473,193.042781 229.247247,197.962688 230.30227,200.935563 L209.481655,217.363406 C204.727084,221.114563 202,226.720313 202,232.743094 L202,376.734688 C202,384.049469 208.005266,390 215.386672,390 L290.613864,390 C297.99527,390 304,384.049469 304,376.734688 L304,232.743094 C304,226.720313 301.273989,221.114563 296.519417,217.363406 Z M239,126 L268,126 L268,132 L239,132 L239,126 Z M239,140 L268,140 L268,150 L239,150 L239,140 Z M241.299515,158 L265.700485,158 C267.366164,162.780309 269.383559,170.155327 270,179 L237,179 C237.616441,170.155327 239.634373,162.780309 241.299515,158 Z M210,246.504039 L222.944459,246.504039 C225.167695,246.504039 226.969681,244.719599 226.969681,242.519196 C226.969681,240.318794 225.167159,238.534353 222.944459,238.534353 L210,238.534353 L210,233.198032 C210,229.616932 211.62329,226.283923 214.452911,224.053771 L237.837939,205.620751 C238.830158,204.839295 239.661926,203.86606 239.624363,202.611268 C239.588946,201.419162 239.259995,200.512864 238.33861,199.805781 C237.95707,199.09073 236.602093,196.007935 236.357392,188 L269.643145,188 C269.398444,196.008466 268.043467,199.09073 267.661926,199.806312 C266.740005,200.513395 266.411054,201.419693 266.376174,202.611799 C266.33861,203.866592 267.170378,204.839295 268.162597,205.621282 L291.547625,224.054302 C294.377247,226.284985 296,229.617464 296,233.198563 L296,238.534353 L241.674269,238.534353 C239.451033,238.534353 237.649047,240.318794 237.649047,242.519196 C237.649047,244.719599 239.45157,246.504039 241.674269,246.504039 L296,246.504039 L296,363 L210,363 L210,246.504039 Z M296,376.48041 C296,379.52402 293.60023,382 290.650959,382 L215.349041,382 C212.39977,382 210,379.52402 210,376.48041 L210,370 L296,370 L296,376.48041 Z" id="Shape" fill="#FFFFFF" fill-rule="nonzero" mask="url(#mask-2)"></path>
        <rect id="Rectangle" fill="#FFFFFF" mask="url(#mask-2)" x="207" y="274" width="92" height="71"></rect>
        <g id="skull" mask="url(#mask-2)">
            <g transform="translate(230.000000, 288.000000)">
                <path d="M22.5,4 C13.4019531,4 6,11.4019531 6,20.5 C6,25.9136719 8.6011719,30.896875 13,33.9917969 L13,38.5 C13,39.3285156 13.6714844,40 14.5,40 L18,40 L18,35.5 C18,34.6714844 18.6714844,34 19.5,34 C20.3285156,34 21,34.6714844 21,35.5 L21,40 L24,40 L24,35.5 C24,34.6714844 24.6714844,34 25.5,34 C26.3285156,34 27,34.6714844 27,35.5 L27,40 L30.5,40 C31.3285156,40 32,39.3285156 32,38.5 L32,33.9917969 C36.3988281,30.896875 39,25.9136719 39,20.5 C39,11.4019531 31.5980469,4 22.5,4 Z M16.5,24.1 C14.01875,24.1 12,22.08125 12,19.6 C12,17.11875 14.01875,15.1 16.5,15.1 C18.98125,15.1 21,17.11875 21,19.6 C21,22.08125 18.98125,24.1 16.5,24.1 Z M28.5,24.1 C26.01875,24.1 24,22.08125 24,19.6 C24,17.11875 26.01875,15.1 28.5,15.1 C30.98125,15.1 33,17.11875 33,19.6 C33,22.08125 30.98125,24.1 28.5,24.1 Z" id="Shape" fill="#D89226" fill-rule="nonzero"></path>
                <path d="M13.9438686,34.3842241 L13.9438686,31.3476015 C13.0341243,30.6327568 12.1909061,29.8463103 11.4246087,29 L7.12702321,33.0441349 C6.36945741,32.3895454 5.36740812,31.9802801 4.2576698,31.9802801 C1.90597249,31.9802801 0,33.7738477 0,35.9868534 C0,38.1998591 1.90597249,39.9934267 4.2576698,39.9934267 C4.2576698,42.2064324 6.16364229,44 8.51533959,44 C10.8666211,44 12.7730094,42.2064324 12.7730094,39.9934267 C12.7730094,38.9491353 12.338095,38.0065732 11.6424816,37.2932937 L14,35.0748102 C13.9629949,34.8494404 13.9438686,34.6189843 13.9438686,34.3842241 Z" id="Path" fill="#D89226" fill-rule="nonzero"></path>
                <path d="M36.2397569,14 L38.7809999,11.5179668 C39.5483424,12.2061407 40.5633235,12.6364037 41.6873834,12.6364037 C44.0694302,12.6364037 46,10.750404 46,8.42426912 C46,6.09772292 44.0694302,4.21213456 41.6873834,4.21213456 C41.6873834,1.88558836 39.7568136,0 37.3747668,0 C34.99272,0 33.0621502,1.88558836 33.0621502,4.21213456 C33.0621502,5.31000437 33.5026773,6.30092556 34.2072679,7.05080061 L32,9.20664026 C33.652608,10.579286 35.0853739,12.1962685 36.2397569,14 L36.2397569,14 Z" id="Path" fill="#D89226" fill-rule="nonzero"></path>
                <rect id="Rectangle" fill="#FFFFFF" fill-rule="evenodd" x="18" y="34" width="3" height="6"></rect>
                <rect id="Rectangle" fill="#FFFFFF" fill-rule="evenodd" x="24" y="34" width="3" height="6"></rect>
                <path d="M40.7423302,31.9802801 C39.6325919,31.9802801 38.6305426,32.3895454 37.8729768,33.0441349 L33.5753913,29 C32.8090939,29.8463103 31.9658757,30.6327568 31.0561314,31.3476015 L31.0561314,34.3842241 C31.0561314,34.6189843 31.0370051,34.8494404 31,35.0748102 L33.3575184,37.2932937 C32.661905,38.0065732 32.2269906,38.9491353 32.2269906,39.9934267 C32.2269906,42.2064324 34.1333789,44 36.4846604,44 C38.8363577,44 40.7423302,42.2064324 40.7423302,39.9934267 C43.0940275,39.9934267 45,38.1998591 45,35.9868534 C45,33.7738477 43.0940275,31.9802801 40.7423302,31.9802801 Z" id="Path" fill="#D89226" fill-rule="nonzero"></path>
                <path d="M4.31261659,12.6364037 C5.43667649,12.6364037 6.45165759,12.2061407 7.21900006,11.5179668 L9.76024313,14 C10.9146261,12.1962685 12.347392,10.579286 14,9.20664026 L11.7927321,7.05080061 C12.4973227,6.30092556 12.9378498,5.31000437 12.9378498,4.21213456 C12.9378498,1.88558836 11.00728,0 8.62523317,0 C6.24318635,0 4.31261659,1.88558836 4.31261659,4.21213456 C1.93056977,4.21213456 0,6.09772292 0,8.42426912 C0,10.750404 1.93056977,12.6364037 4.31261659,12.6364037 Z" id="Path" fill="#D89226" fill-rule="nonzero"></path>
            </g>
        </g>
        <line x1="207.311262" y1="242.512383" x2="298.999916" y2="242.533515" id="Path-2" stroke="#FFFFFF" stroke-width="8" stroke-linecap="round"></line>
    </g>
</svg>