<?xml version="1.0" encoding="UTF-8"?>
<svg width="508px" height="508px" viewBox="0 0 508 508" version="1.1" xmlns="http://www.w3.org/2000/svg" xmlns:xlink="http://www.w3.org/1999/xlink">
    <title>back</title>
    <g id="rhum" stroke="none" stroke-width="1" fill="none" fill-rule="evenodd">
        <g id="Group" transform="translate(18.000000, 21.000000)">
            <ellipse id="Oval" fill="#E67C12" cx="236" cy="236.5" rx="236" ry="236.5"></ellipse>
            <g id="Group-2" transform="translate(68.000000, 49.000000)" fill="#FFFFFF" fill-rule="nonzero">
                <g id="noun_Snifter_43095" transform="translate(0.678862, 0.000000)">
                    <path d="M280.745311,32.5686909 C280.52527,32.268979 279.910674,31.4475465 279.827211,31.3735436 C266.996575,9.90899276 213.887151,0 164.146623,0 C114.170879,0 60.9172913,9.9829957 48.306696,31.5918522 C48.23082,31.5918522 47.5441419,32.5686909 47.2406378,33.0867115 C-17.3260655,143.014369 -2.9665278,212.987842 20.4184631,252.338902 C47.6921002,298.165218 102.178674,325.594406 166.206657,325.594406 C230.466063,325.594406 287.316174,295.334606 314.434266,246.596274 C346.378072,189.292103 334.382072,113.265189 280.745311,32.5686909 Z M164.146623,21.4608506 C226.034903,21.4608506 258.126668,36.2910385 259.962867,41.5045451 C258.126668,47.0954667 226.034903,61.9256545 164.146623,61.9256545 C102.25455,61.9256545 70.162785,47.0954667 68.3265851,41.8819601 C70.162785,36.2947386 102.250756,21.4608506 164.146623,21.4608506 Z M294.274006,235.947252 C271.192519,277.451797 222.062793,303.238119 166.206657,303.238119 C110.509861,303.238119 63.3642931,279.986398 40.2866002,241.083056 C13.6161774,196.222478 19.8076611,132.883367 57.5521896,61.407634 C78.2625506,76.3858277 122.354109,83.3939055 164.146623,83.3939055 C206.481651,83.3939055 251.259887,76.2378218 271.579487,60.8082103 C311.846893,128.106478 319.946659,189.806423 294.274006,235.947252 Z" id="Shape"></path>
                    <path d="M285.716858,213.529574 C285.644352,185.202804 224.845882,172.293706 168.355816,172.293706 C111.942071,172.293706 51.0710952,185.199141 50.9947727,213.529574 L50.9146341,213.529574 C50.9146341,257.3436 103.638188,293.034965 168.355816,293.034965 C233.077259,293.034965 285.800813,257.3436 285.800813,213.529574 L285.716858,213.529574 Z M168.355816,233.590861 C107.175734,233.590861 75.3569011,218.916605 73.5900362,213.822547 C75.3569011,208.219449 107.17955,193.545193 168.355816,193.545193 C229.539714,193.545193 261.350914,208.219449 263.125411,213.383088 C261.35473,218.916605 229.54353,233.590861 168.355816,233.590861 Z" id="Shape"></path>
                </g>
                <g id="noun_Snifter_9246" transform="translate(97.756098, 312.027972)">
                    <path d="M50.9156932,0 C50.9156932,38.7267513 29.4155791,64.039003 0,64.039003 C21.5775576,71.994353 44.6522075,75.972028 69.2239496,75.972028 C93.7956917,75.972028 116.431069,71.994353 137.130081,64.039003 C107.714502,64.039003 86.2143881,38.7267513 86.2143881,0 L50.9156932,0 Z" id="Shape"></path>
                </g>
            </g>
        </g>
    </g>
</svg>