<?xml version="1.0" encoding="UTF-8"?>
<svg width="508px" height="508px" viewBox="0 0 508 508" version="1.1" xmlns="http://www.w3.org/2000/svg" xmlns:xlink="http://www.w3.org/1999/xlink">
    <title>back</title>
    <defs>
        <circle id="path-1" cx="183.5" cy="183" r="183"></circle>
    </defs>
    <g id="rhum---polygon-circle" stroke="none" stroke-width="1" fill="none" fill-rule="evenodd">
        <g id="Group" transform="translate(70.000000, 71.000000)">
            <mask id="mask-2" fill="white">
                <use xlink:href="#path-1"></use>
            </mask>
            <g id="Mask"></g>
            <g id="polygons" mask="url(#mask-2)">
                <g transform="translate(-6.000000, -52.000000)" id="Triangle">
                    <polygon fill="#1788B3" transform="translate(141.472226, 281.727467) rotate(-270.000000) translate(-141.472226, -281.727467) " points="141.472226 234.727467 235.472226 328.727467 47.472226 328.727467"></polygon>
                    <polygon fill="#147EA6" transform="translate(141.411718, 375.785743) rotate(-90.000000) translate(-141.411718, -375.785743) " points="141.411718 328.785743 235.411718 422.785743 198.931392 422.785743 47.4117182 422.785743"></polygon>
                    <polygon fill="#CB0806" transform="translate(47.500000, 282.000000) rotate(-90.000000) translate(-47.500000, -282.000000) " points="47.5 235 141.5 329 -46.5 329"></polygon>
                    <polygon fill="#FF0000" transform="translate(47.500000, 94.000000) rotate(-90.000000) translate(-47.500000, -94.000000) " points="47.5 47 141.5 141 -46.5 141"></polygon>
                    <polygon fill="#E10709" transform="translate(47.500000, 188.000000) rotate(-270.000000) translate(-47.500000, -188.000000) " points="47.5 141 141.5 235 -46.5 235"></polygon>
                    <polygon fill="#A7080A" transform="translate(47.682019, 375.951891) rotate(-270.000000) translate(-47.682019, -375.951891) " points="47.6820192 328.951891 141.682019 422.951891 -46.3179808 422.951891"></polygon>
                    <polygon fill="#A7080A" transform="translate(94.595721, 422.729451) rotate(-360.000000) translate(-94.595721, -422.729451) " points="94.5957213 375.729451 188.595721 469.729451 0.595721262 469.729451"></polygon>
                    <polygon fill="#109ED3" transform="translate(141.611740, 187.885067) rotate(-90.000000) translate(-141.611740, -187.885067) " points="141.61174 140.885067 235.61174 234.885067 47.6117402 234.885067"></polygon>
                    <polygon fill="#10B0EC" transform="translate(141.500000, 94.000000) rotate(-270.000000) translate(-141.500000, -94.000000) " points="141.5 47 235.5 141 47.5 141"></polygon>
                    <polygon fill="#10B0EC" transform="translate(188.500000, 47.000000) rotate(-180.000000) translate(-188.500000, -47.000000) " points="188.5 0 282.5 94 94.5 94"></polygon>
                    <polygon fill="#D9BA06" transform="translate(235.500000, 282.000000) rotate(-90.000000) translate(-235.500000, -282.000000) " points="235.5 235 329.5 329 141.5 329"></polygon>
                    <polygon fill="#CDB009" transform="translate(235.500000, 376.000000) rotate(-270.000000) translate(-235.500000, -376.000000) " points="235.5 329 329.5 423 141.5 423"></polygon>
                    <polygon fill="#CDB009" transform="translate(282.489597, 422.964781) rotate(-360.000000) translate(-282.489597, -422.964781) " points="282.489597 375.964781 376.489597 469.964781 188.489597 469.964781"></polygon>
                    <polygon fill="#F4D002" transform="translate(235.500000, 188.000000) rotate(-270.000000) translate(-235.500000, -188.000000) " points="235.5 141 329.5 235 141.5 235"></polygon>
                    <polygon fill="#F8DA2C" transform="translate(235.500000, 94.000000) rotate(-90.000000) translate(-235.500000, -94.000000) " points="235.5 47 329.5 141 141.5 141"></polygon>
                    <polygon fill="#279D34" transform="translate(329.500000, 188.000000) rotate(-90.000000) translate(-329.500000, -188.000000) " points="329.5 141 423.5 235 235.5 235"></polygon>
                    <polygon fill="#32B240" transform="translate(329.500000, 94.000000) rotate(-270.000000) translate(-329.500000, -94.000000) " points="329.5 47 423.5 141 235.5 141"></polygon>
                    <polygon fill="#2A8735" transform="translate(329.500000, 282.000000) rotate(-270.000000) translate(-329.500000, -282.000000) " points="329.5 235 423.5 329 235.5 329"></polygon>
                    <polygon fill="#2A8735" transform="translate(329.466599, 375.961773) rotate(-90.000000) translate(-329.466599, -375.961773) " points="329.466599 328.961773 423.466599 422.961773 235.466599 422.961773"></polygon>
                </g>
            </g>
            <g id="Group-3" transform="translate(94.500000, 69.000000)" fill="#FFFFFF">
                <g id="noun_Snifter_43095" fill-rule="nonzero">
                    <path d="M152.211313,18.2824247 C152.092014,18.1141815 151.758799,17.6530706 151.713548,17.6115291 C144.757179,5.56241005 115.962913,0 88.9951571,0 C61.8998744,0 33.0274471,5.60395157 26.1903773,17.7340765 C26.1492397,17.7340765 25.7769444,18.2824247 25.612394,18.5732153 C-9.39364997,80.281072 -1.60835845,119.56066 11.0702511,141.650365 C25.8571628,167.374954 55.3980761,182.77232 90.1120431,182.77232 C124.95148,182.77232 155.773829,165.785991 170.476409,138.426743 C187.79534,106.259064 181.291485,63.5813794 152.211313,18.2824247 Z M88.9951571,12.0470419 C122.549044,12.0470419 139.948193,20.3719633 140.943723,23.2985637 C139.948193,26.4370258 122.549044,34.7619472 88.9951571,34.7619472 C55.4392137,34.7619472 38.0400641,26.4370258 37.0445341,23.5104254 C38.0400641,20.3740404 55.4371568,12.0470419 88.9951571,12.0470419 Z M159.546148,132.448918 C147.032089,155.747481 120.39549,170.222625 90.1120431,170.222625 C59.914985,170.222625 34.3541348,157.170279 21.8421326,135.331899 C7.38226487,110.149428 10.7390933,74.5940374 31.2029944,34.4711565 C42.4315033,42.879161 66.3365649,46.8131433 88.9951571,46.8131433 C111.947883,46.8131433 136.22524,42.7960779 147.24189,34.1346702 C169.073617,71.912532 173.465056,106.547778 159.546148,132.448918 Z" id="Shape"></path>
                    <path d="M154.90673,119.864761 C154.86742,103.963537 121.904394,96.7170192 91.2772494,96.7170192 C60.6914843,96.7170192 27.689148,103.961481 27.6477683,119.864761 L27.6043197,119.864761 C27.6043197,144.459751 56.1893789,164.495088 91.2772494,164.495088 C126.367189,164.495088 154.952248,144.459751 154.952248,119.864761 L154.90673,119.864761 Z M91.2772494,131.126158 C58.1073255,131.126158 40.8561512,122.888769 39.8982124,120.029221 C40.8561512,116.883924 58.1093944,108.646535 91.2772494,108.646535 C124.449242,108.646535 141.696279,116.883924 142.658355,119.782531 C141.698348,122.888769 124.451311,131.126158 91.2772494,131.126158 Z" id="Shape"></path>
                </g>
                <g id="noun_Snifter_9246" transform="translate(42.000000, 174.000000)" fill-rule="nonzero">
                    <path d="M5.82579132,0 C59.1965778,21.5693298 15.6993259,37.3381789 0,37.3381789 C18.6322171,41.7690067 34.5053916,43.9844206 47.6195237,43.9844206 C60.7336557,43.9844206 76.372387,41.7690067 94.5357175,37.3381789 C78.8363916,37.3381789 34.8054318,21.5693298 88.1762184,0 C69.1510015,3.91077511 55.6826507,5.86616267 47.7711659,5.86616267 C39.635989,5.86616267 25.6541975,3.91077511 5.82579132,0 Z" id="Shape"></path>
                </g>
                <ellipse id="Oval" cx="89.5" cy="214.5" rx="49.5" ry="14.5"></ellipse>
            </g>
        </g>
    </g>
</svg>